<svg xmlns="http://www.w3.org/2000/svg" width="520" height="694" viewBox="0 0 520 694">
  <defs>
    <filter id="cardShadow" x="-40%" y="-40%" width="180%" height="180%">
      <feDropShadow dx="0" dy="14" stdDeviation="14" flood-color="#1B255A" flood-opacity="0.20"/>
    </filter>

    <filter id="outerGlow" x="-60%" y="-60%" width="220%" height="220%">
      <feGaussianBlur stdDeviation="6" result="b"/>
      <feMerge>
        <feMergeNode in="b"/>
        <feMergeNode in="SourceGraphic"/>
      </feMerge>
    </filter>

    <linearGradient id="frameStroke" x1="0" y1="0" x2="1" y2="1">
      <stop offset="0" stop-color="#B7B2FF"/>
      <stop offset="0.55" stop-color="#A9D6FF"/>
      <stop offset="1" stop-color="#C9B8FF"/>
    </linearGradient>

    <linearGradient id="bodyGrad" x1="0" y1="0" x2="0" y2="1">
      <stop offset="0" stop-color="#FFFFFF"/>
      <stop offset="1" stop-color="#F6F8FF"/>
    </linearGradient>

    <linearGradient id="innerBg" x1="0" y1="0" x2="1" y2="1">
      <stop offset="0" stop-color="#EAF6FF"/>
      <stop offset="1" stop-color="#F3F6FF"/>
    </linearGradient>

    <linearGradient id="slotGrad" x1="0" y1="0" x2="0" y2="1">
      <stop offset="0" stop-color="#FFFFFF"/>
      <stop offset="1" stop-color="#F2F5FF"/>
    </linearGradient>

    <linearGradient id="centerGrad" x1="0" y1="0" x2="0" y2="1">
      <stop offset="0" stop-color="#FFE9A8"/>
      <stop offset="1" stop-color="#FFD56A"/>
    </linearGradient>

    <linearGradient id="shine" x1="0" y1="0" x2="1" y2="1">
      <stop offset="0" stop-color="#FFFFFF" stop-opacity="0.60"/>
      <stop offset="0.45" stop-color="#FFFFFF" stop-opacity="0.18"/>
      <stop offset="1" stop-color="#FFFFFF" stop-opacity="0"/>
    </linearGradient>

    <filter id="slotShadow" x="-30%" y="-30%" width="160%" height="160%">
      <feDropShadow dx="0" dy="2" stdDeviation="2" flood-color="#23306B" flood-opacity="0.12"/>
    </filter>
  </defs>

  <g filter="url(#cardShadow)">
    <rect x="46" y="88" width="428" height="518" rx="34"
          fill="none" stroke="url(#frameStroke)" stroke-width="10"
          stroke-opacity="0.55" filter="url(#outerGlow)"/>

    <rect x="46" y="88" width="428" height="518" rx="34"
          fill="url(#innerBg)" stroke="url(#frameStroke)" stroke-width="6"/>

    <rect x="56" y="98" width="408" height="498" rx="28"
          fill="none" stroke="#FFFFFF" stroke-opacity="0.75" stroke-width="2"/>

    <path d="M72 118
             C90 102, 118 96, 148 96
             H228
             C170 114, 116 134, 82 154
             C74 158, 70 154, 70 148
             V128
             C70 124, 70 122, 72 118Z"
          fill="url(#shine)"/>

    <rect x="66" y="132" width="388" height="420" rx="26"
          fill="url(#bodyGrad)" stroke="#E7EBFF" stroke-width="2"/>

    <g filter="url(#slotShadow)">
      <rect x="96"  y="166" width="100" height="108" rx="18" fill="url(#slotGrad)" stroke="#E6ECFF" stroke-width="2"/>
      <rect x="210" y="166" width="100" height="108" rx="18" fill="url(#slotGrad)" stroke="#E6ECFF" stroke-width="2"/>
      <rect x="324" y="166" width="100" height="108" rx="18" fill="url(#slotGrad)" stroke="#E6ECFF" stroke-width="2"/>

      <rect x="96"  y="288" width="100" height="108" rx="18" fill="url(#slotGrad)" stroke="#E6ECFF" stroke-width="2"/>
      <rect x="210" y="288" width="100" height="108" rx="18" fill="url(#centerGrad)" stroke="#FFD06B" stroke-width="2"/>
      <rect x="324" y="288" width="100" height="108" rx="18" fill="url(#slotGrad)" stroke="#E6ECFF" stroke-width="2"/>

      <rect x="96"  y="410" width="100" height="108" rx="18" fill="url(#slotGrad)" stroke="#E6ECFF" stroke-width="2"/>
      <rect x="210" y="410" width="100" height="108" rx="18" fill="url(#slotGrad)" stroke="#E6ECFF" stroke-width="2"/>
      <rect x="324" y="410" width="100" height="108" rx="18" fill="url(#slotGrad)" stroke="#E6ECFF" stroke-width="2"/>
    </g>
  </g>
</svg>
